<svg data-v-423bf9ae="" xmlns="http://www.w3.org/2000/svg" viewBox="0 0 594 90" class="iconLeft"><!----><!----><!----><g data-v-423bf9ae="" id="3248969b-4704-494f-9c7a-6cc4c1afc3b6" fill="#000000" transform="matrix(5.434782627474683,0,0,5.434782627474683,157.92344876329483,3.15217279403857)"><path d="M6.76 5.81L6.76 12.80Q6.36 12.91 5.67 13.05Q4.98 13.19 3.99 13.19L3.99 13.19Q3.18 13.19 2.63 12.95Q2.09 12.71 1.75 12.28Q1.41 11.84 1.27 11.23Q1.12 10.61 1.12 9.87L1.12 9.87L1.12 5.81L2.03 5.81L2.03 9.58Q2.03 10.35 2.14 10.88Q2.25 11.41 2.51 11.74Q2.76 12.07 3.16 12.21Q3.56 12.36 4.13 12.36L4.13 12.36Q4.77 12.36 5.25 12.29Q5.73 12.22 5.85 12.17L5.85 12.17L5.85 5.81L6.76 5.81ZM10.65 12.40L10.65 12.40Q11.44 12.40 11.95 12.14Q12.46 11.89 12.46 11.27L12.46 11.27Q12.46 10.98 12.37 10.77Q12.28 10.56 12.07 10.39Q11.86 10.22 11.52 10.07Q11.17 9.91 10.67 9.70L10.67 9.70Q10.26 9.53 9.90 9.36Q9.53 9.18 9.25 8.95Q8.97 8.72 8.81 8.40Q8.64 8.08 8.64 7.62L8.64 7.62Q8.64 6.73 9.30 6.19Q9.97 5.64 11.13 5.64L11.13 5.64Q11.87 5.64 12.36 5.77Q12.84 5.89 13.03 5.99L13.03 5.99L12.82 6.80Q12.66 6.72 12.26 6.58Q11.86 6.44 11.09 6.44L11.09 6.44Q10.78 6.44 10.51 6.50Q10.23 6.57 10.02 6.70Q9.81 6.83 9.69 7.04Q9.56 7.24 9.56 7.53L9.56 7.53Q9.56 7.83 9.67 8.04Q9.79 8.25 10.00 8.41Q10.22 8.57 10.54 8.71Q10.85 8.85 11.26 9.02L11.26 9.02Q11.68 9.18 12.06 9.36Q12.45 9.53 12.74 9.78Q13.03 10.02 13.22 10.37Q13.40 10.71 13.40 11.23L13.40 11.23Q13.40 12.21 12.66 12.71Q11.93 13.22 10.65 13.22L10.65 13.22Q9.70 13.22 9.20 13.05Q8.69 12.89 8.53 12.81L8.53 12.81L8.76 11.98Q8.81 12.01 8.95 12.07Q9.09 12.14 9.32 12.21Q9.56 12.29 9.89 12.35Q10.22 12.40 10.65 12.40ZM15.16 13.05L15.16 6.06Q15.57 5.95 16.22 5.81Q16.87 5.67 17.91 5.67L17.91 5.67Q19.28 5.67 19.89 6.47L19.89 6.47Q19.96 6.41 20.17 6.28Q20.37 6.15 20.68 6.01Q20.99 5.87 21.40 5.77Q21.81 5.67 22.32 5.67L22.32 5.67Q23.14 5.67 23.65 5.92Q24.16 6.16 24.44 6.60Q24.72 7.04 24.82 7.66Q24.92 8.27 24.92 9.00L24.92 9.00L24.92 13.05L24.01 13.05L24.01 9.30Q24.01 8.58 23.95 8.06Q23.88 7.53 23.70 7.19Q23.51 6.85 23.16 6.67Q22.81 6.50 22.25 6.50L22.25 6.50Q21.83 6.50 21.48 6.57Q21.14 6.65 20.89 6.76Q20.64 6.87 20.48 6.99Q20.31 7.10 20.24 7.15L20.24 7.15Q20.37 7.52 20.43 7.97Q20.50 8.43 20.50 8.93L20.50 8.93L20.50 13.05L19.59 13.05L19.59 9.30Q19.59 8.58 19.52 8.06Q19.46 7.53 19.26 7.19Q19.07 6.85 18.71 6.67Q18.35 6.50 17.77 6.50L17.77 6.50Q17.11 6.50 16.65 6.57Q16.20 6.64 16.07 6.69L16.07 6.69L16.07 13.05L15.16 13.05ZM29.53 12.39L29.53 12.39Q30.06 12.39 30.46 12.36Q30.86 12.32 31.14 12.26L31.14 12.26L31.14 9.72Q30.98 9.65 30.65 9.57Q30.31 9.49 29.72 9.49L29.72 9.49Q29.39 9.49 29.02 9.54Q28.66 9.59 28.35 9.75Q28.04 9.91 27.85 10.19Q27.65 10.47 27.65 10.93L27.65 10.93Q27.65 11.34 27.78 11.62Q27.92 11.90 28.16 12.07Q28.41 12.24 28.75 12.31Q29.09 12.39 29.53 12.39ZM29.44 5.64L29.44 5.64Q30.16 5.64 30.65 5.84Q31.15 6.05 31.46 6.41Q31.77 6.76 31.91 7.25Q32.05 7.74 32.05 8.32L32.05 8.32L32.05 12.88Q31.91 12.92 31.64 12.97Q31.37 13.02 31.02 13.08Q30.67 13.13 30.25 13.17Q29.82 13.20 29.37 13.20L29.37 13.20Q28.80 13.20 28.31 13.08Q27.83 12.95 27.47 12.68Q27.12 12.40 26.91 11.98Q26.71 11.55 26.71 10.93L26.71 10.93Q26.71 10.35 26.94 9.93Q27.16 9.51 27.57 9.23Q27.97 8.96 28.53 8.83Q29.09 8.71 29.75 8.71L29.75 8.71Q29.95 8.71 30.16 8.73Q30.38 8.75 30.58 8.79Q30.79 8.82 30.93 8.86Q31.08 8.89 31.14 8.92L31.14 8.92L31.14 8.47Q31.14 8.09 31.08 7.74Q31.02 7.38 30.84 7.09Q30.65 6.80 30.30 6.63Q29.96 6.45 29.40 6.45L29.40 6.45Q28.60 6.45 28.21 6.57Q27.82 6.68 27.64 6.75L27.64 6.75L27.51 5.95Q27.75 5.84 28.24 5.74Q28.74 5.64 29.44 5.64ZM34.37 13.05L34.37 6.06Q34.78 5.95 35.46 5.81Q36.15 5.67 37.14 5.67L37.14 5.67Q37.97 5.67 38.52 5.91Q39.07 6.15 39.40 6.59Q39.73 7.03 39.87 7.64Q40.01 8.26 40.01 9.00L40.01 9.00L40.01 13.05L39.10 13.05L39.10 9.30Q39.10 8.53 39.00 7.99Q38.89 7.46 38.65 7.13Q38.40 6.79 38.00 6.64Q37.60 6.50 37.00 6.50L37.00 6.50Q36.36 6.50 35.89 6.57Q35.42 6.64 35.28 6.69L35.28 6.69L35.28 13.05L34.37 13.05ZM48.52 13.20L48.52 13.20Q47.68 13.20 47.04 12.94Q46.40 12.67 45.97 12.17Q45.54 11.68 45.32 10.98Q45.09 10.29 45.09 9.45L45.09 9.45Q45.09 8.60 45.32 7.90Q45.56 7.20 45.99 6.69Q46.42 6.19 47.04 5.92Q47.66 5.64 48.43 5.64L48.43 5.64Q49.01 5.64 49.52 5.74Q50.04 5.84 50.32 5.99L50.32 5.99L50.08 6.78Q49.80 6.64 49.45 6.55Q49.10 6.47 48.51 6.47L48.51 6.47Q47.31 6.47 46.68 7.25Q46.06 8.02 46.06 9.45L46.06 9.45Q46.06 10.09 46.20 10.63Q46.34 11.17 46.66 11.56Q46.97 11.94 47.47 12.16Q47.96 12.38 48.68 12.38L48.68 12.38Q49.27 12.38 49.66 12.24Q50.06 12.11 50.25 12.01L50.25 12.01L50.44 12.80Q50.19 12.94 49.65 13.07Q49.11 13.20 48.52 13.20ZM58.14 9.44L58.14 9.44Q58.14 10.29 57.90 10.99Q57.65 11.69 57.21 12.18Q56.77 12.67 56.17 12.94Q55.57 13.22 54.84 13.22L54.84 13.22Q54.11 13.22 53.51 12.94Q52.91 12.67 52.46 12.18Q52.02 11.69 51.78 10.99Q51.53 10.29 51.53 9.44L51.53 9.44Q51.53 8.58 51.78 7.88Q52.02 7.18 52.46 6.68Q52.91 6.19 53.51 5.92Q54.11 5.64 54.84 5.64L54.84 5.64Q55.57 5.64 56.17 5.92Q56.77 6.19 57.21 6.68Q57.65 7.18 57.90 7.88Q58.14 8.58 58.14 9.44ZM57.18 9.44L57.18 9.44Q57.18 8.08 56.55 7.27Q55.92 6.47 54.84 6.47L54.84 6.47Q53.76 6.47 53.13 7.27Q52.50 8.08 52.50 9.44L52.50 9.44Q52.50 10.79 53.13 11.59Q53.76 12.39 54.84 12.39L54.84 12.39Q55.92 12.39 56.55 11.59Q57.18 10.79 57.18 9.44ZM65.87 2.18L65.87 12.82Q65.46 12.96 64.83 13.09Q64.20 13.22 63.24 13.22L63.24 13.22Q62.44 13.22 61.79 12.96Q61.14 12.70 60.67 12.21Q60.20 11.72 59.94 11.02Q59.68 10.32 59.68 9.44L59.68 9.44Q59.68 8.61 59.90 7.92Q60.12 7.22 60.54 6.72Q60.96 6.22 61.56 5.94Q62.17 5.66 62.96 5.66L62.96 5.66Q63.67 5.66 64.20 5.86Q64.72 6.06 64.96 6.24L64.96 6.24L64.96 2.35L65.87 2.18ZM64.96 12.19L64.96 7.13Q64.83 7.03 64.64 6.92Q64.46 6.80 64.20 6.71Q63.95 6.61 63.66 6.54Q63.36 6.48 63.04 6.48L63.04 6.48Q62.37 6.48 61.91 6.72Q61.46 6.96 61.18 7.36Q60.90 7.76 60.77 8.29Q60.65 8.83 60.65 9.44L60.65 9.44Q60.65 10.86 61.36 11.63Q62.08 12.39 63.25 12.39L63.25 12.39Q63.92 12.39 64.34 12.33Q64.75 12.26 64.96 12.19L64.96 12.19ZM67.84 9.42L67.84 9.42Q67.84 8.47 68.12 7.76Q68.39 7.06 68.83 6.58Q69.27 6.10 69.84 5.87Q70.41 5.64 71.01 5.64L71.01 5.64Q72.34 5.64 73.13 6.51Q73.92 7.38 73.92 9.18L73.92 9.18Q73.92 9.30 73.91 9.41Q73.91 9.52 73.89 9.62L73.89 9.62L68.81 9.62Q68.85 10.95 69.47 11.66Q70.08 12.38 71.43 12.38L71.43 12.38Q72.17 12.38 72.60 12.24Q73.04 12.10 73.23 12.00L73.23 12.00L73.40 12.78Q73.21 12.89 72.67 13.05Q72.13 13.20 71.40 13.20L71.40 13.20Q70.45 13.20 69.78 12.92Q69.10 12.64 68.67 12.14Q68.24 11.63 68.04 10.94Q67.84 10.25 67.84 9.42ZM68.84 8.85L72.98 8.85Q72.95 7.71 72.45 7.08Q71.95 6.45 71.02 6.45L71.02 6.45Q70.53 6.45 70.15 6.65Q69.76 6.85 69.47 7.17Q69.19 7.50 69.03 7.94Q68.87 8.37 68.84 8.85L68.84 8.85ZM77.43 12.40L77.43 12.40Q78.22 12.40 78.73 12.14Q79.24 11.89 79.24 11.27L79.24 11.27Q79.24 10.98 79.15 10.77Q79.06 10.56 78.85 10.39Q78.64 10.22 78.30 10.07Q77.95 9.91 77.45 9.70L77.45 9.70Q77.04 9.53 76.68 9.36Q76.31 9.18 76.03 8.95Q75.75 8.72 75.59 8.40Q75.42 8.08 75.42 7.62L75.42 7.62Q75.42 6.73 76.08 6.19Q76.75 5.64 77.91 5.64L77.91 5.64Q78.65 5.64 79.13 5.77Q79.62 5.89 79.81 5.99L79.81 5.99L79.60 6.80Q79.44 6.72 79.04 6.58Q78.64 6.44 77.87 6.44L77.87 6.44Q77.56 6.44 77.29 6.50Q77.01 6.57 76.80 6.70Q76.59 6.83 76.47 7.04Q76.34 7.24 76.34 7.53L76.34 7.53Q76.34 7.83 76.45 8.04Q76.57 8.25 76.78 8.41Q77 8.57 77.31 8.71Q77.63 8.85 78.04 9.02L78.04 9.02Q78.46 9.18 78.84 9.36Q79.23 9.53 79.52 9.78Q79.81 10.02 80.00 10.37Q80.18 10.71 80.18 11.23L80.18 11.23Q80.18 12.21 79.44 12.71Q78.71 13.22 77.43 13.22L77.43 13.22Q76.48 13.22 75.98 13.05Q75.47 12.89 75.31 12.81L75.31 12.81L75.54 11.98Q75.59 12.01 75.73 12.07Q75.87 12.14 76.10 12.21Q76.34 12.29 76.67 12.35Q77 12.40 77.43 12.40Z"></path></g><defs data-v-423bf9ae=""><linearGradient data-v-423bf9ae="" gradientTransform="rotate(25)" id="9195ce86-1b89-44b1-aa72-3f9ff2f27459" x1="0%" y1="0%" x2="100%" y2="0%"><stop data-v-423bf9ae="" offset="0%" style="stop-color: rgb(40, 139, 88); stop-opacity: 1;"></stop><stop data-v-423bf9ae="" offset="100%" style="stop-color: rgb(21, 34, 241); stop-opacity: 1;"></stop></linearGradient></defs><g data-v-423bf9ae="" id="343ffac2-1833-4f92-850e-6cba0859ca49" transform="matrix(1.5001077729405354,0,0,1.5001077729405354,0.994807050549241,-27.00409663533148)" stroke="none" fill="url(#9195ce86-1b89-44b1-aa72-3f9ff2f27459)"><path d="M28.416 76.572a4.01 4.01 0 01-2.832-1.172L1.172 50.844A4.02 4.02 0 010 48a4.03 4.03 0 011.176-2.848l24.412-24.548a3.978 3.978 0 015.656.004 4.048 4.048 0 01-.004 5.696L9.664 48l21.58 21.704a4.042 4.042 0 010 5.688 3.978 3.978 0 01-2.828 1.18zM67.588 76.572a3.963 3.963 0 01-2.828-1.18 4.038 4.038 0 010-5.697L86.344 48 64.76 26.304a4.037 4.037 0 010-5.696 3.978 3.978 0 015.656-.008l24.412 24.552A4.015 4.015 0 0196 48c0 1.068-.42 2.088-1.172 2.844L70.416 75.393a3.96 3.96 0 01-2.828 1.179zM38.348 78a4.03 4.03 0 01-1.436-.264 4.045 4.045 0 01-2.296-5.213l19.868-51.947a3.992 3.992 0 015.168-2.304c2.06.796 3.088 3.124 2.296 5.204L42.072 75.424A3.983 3.983 0 0138.348 78z"></path></g><!----></svg>